<svg width="32" height="31" viewBox="0 0 32 31" fill="none" xmlns="http://www.w3.org/2000/svg">
<path fill-rule="evenodd" clip-rule="evenodd" d="M23.1111 0C28.0203 0 32 3.85533 32 8.61111V22.3889C32 27.1446 28.0203 31 23.1111 31H8.88889C3.9797 31 0 27.1446 0 22.3889L0 8.61111C0 3.85533 3.9797 0 8.88889 0L23.1111 0ZM23.1111 3.44444L8.88889 3.44444C5.94338 3.44444 3.55556 5.75765 3.55556 8.61111L3.55556 22.3889C3.55556 25.2424 5.94338 27.5556 8.88889 27.5556H23.1111C26.0567 27.5556 28.4444 25.2424 28.4444 22.3889V8.61111C28.4444 5.75765 26.0567 3.44444 23.1111 3.44444ZM16 8.61111C19.9273 8.61111 23.1111 11.6954 23.1111 15.5C23.1111 19.3046 19.9273 22.3889 16 22.3889C12.0726 22.3889 8.88889 19.3046 8.88889 15.5C8.88889 11.6954 12.0726 8.61111 16 8.61111ZM16 12.0556C14.0363 12.0556 12.4444 13.5976 12.4444 15.5C12.4444 17.4024 14.0363 18.9444 16 18.9444C17.9637 18.9444 19.5556 17.4024 19.5556 15.5C19.5556 13.5976 17.9637 12.0556 16 12.0556ZM24 6.02778C24.9819 6.02778 25.7778 6.79885 25.7778 7.75C25.7778 8.70115 24.9819 9.47222 24 9.47222C23.0181 9.47222 22.2222 8.70115 22.2222 7.75C22.2222 6.79885 23.0181 6.02778 24 6.02778Z" fill="#2A2B2E"/>
</svg>
