<svg width="32" height="32" viewBox="0 0 32 32" fill="none" xmlns="http://www.w3.org/2000/svg">
<path fill-rule="evenodd" clip-rule="evenodd" d="M3.2 16C3.2 8.93075 8.93075 3.2 16 3.2C23.0693 3.2 28.8 8.93075 28.8 16C28.8 22.5274 23.9141 27.9136 17.6 28.701V19.2H20.8C21.6837 19.2 22.4 18.4837 22.4 17.6C22.4 16.7163 21.6837 16 20.8 16H17.6V12.8C17.6 11.9164 18.3163 11.2 19.2 11.2H20C20.8837 11.2 21.6 10.4836 21.6 9.6C21.6 8.71635 20.8837 8 20 8H19.2C16.549 8 14.4 10.149 14.4 12.8V16H11.2C10.3164 16 9.6 16.7163 9.6 17.6C9.6 18.4837 10.3164 19.2 11.2 19.2H14.4V28.701C8.0859 27.9136 3.2 22.5274 3.2 16ZM16 32C24.8365 32 32 24.8365 32 16C32 7.16344 24.8365 0 16 0C7.16344 0 0 7.16344 0 16C0 24.8365 7.16344 32 16 32Z" fill="#2A2B2E"/>
</svg>
