<svg width="192" height="37" viewBox="0 0 192 37" fill="none" xmlns="http://www.w3.org/2000/svg">
<path d="M38.126 17.57V20.694H43.164V23.598H38.126V26.986H43.824V30H34.364V14.556H43.824V17.57H38.126ZM53.5263 30L51.1723 26.59L49.1923 30H45.1223L49.1703 23.73L45.0123 17.724H49.2363L51.5903 21.112L53.5703 17.724H57.6403L53.5263 23.906L57.7503 30H53.5263ZM58.4519 23.862C58.4519 22.586 58.7086 21.4713 59.2219 20.518C59.7499 19.5647 60.4759 18.8313 61.3999 18.318C62.3386 17.8047 63.4093 17.548 64.6119 17.548C66.1519 17.548 67.4353 17.9513 68.4619 18.758C69.5033 19.5647 70.1853 20.7013 70.5079 22.168H66.5039C66.1666 21.2293 65.5139 20.76 64.5459 20.76C63.8566 20.76 63.3066 21.0313 62.8959 21.574C62.4853 22.102 62.2799 22.8647 62.2799 23.862C62.2799 24.8593 62.4853 25.6293 62.8959 26.172C63.3066 26.7 63.8566 26.964 64.5459 26.964C65.5139 26.964 66.1666 26.4947 66.5039 25.556H70.5079C70.1853 26.9933 69.5033 28.1227 68.4619 28.944C67.4206 29.7653 66.1373 30.176 64.6119 30.176C63.4093 30.176 62.3386 29.9193 61.3999 29.406C60.4759 28.8927 59.7499 28.1593 59.2219 27.206C58.7086 26.2527 58.4519 25.138 58.4519 23.862ZM80.0663 17.592C81.4743 17.592 82.6036 18.0613 83.4543 19C84.3049 19.924 84.7303 21.2 84.7303 22.828V30H80.9903V23.334C80.9903 22.5127 80.7776 21.8747 80.3523 21.42C79.9269 20.9653 79.3549 20.738 78.6363 20.738C77.9176 20.738 77.3456 20.9653 76.9203 21.42C76.4949 21.8747 76.2823 22.5127 76.2823 23.334V30H72.5203V13.72H76.2823V19.374C76.6636 18.8313 77.1843 18.3987 77.8443 18.076C78.5043 17.7533 79.2449 17.592 80.0663 17.592ZM86.5965 23.84C86.5965 22.5787 86.8311 21.4713 87.3005 20.518C87.7845 19.5647 88.4371 18.8313 89.2585 18.318C90.0798 17.8047 90.9965 17.548 92.0085 17.548C92.8738 17.548 93.6291 17.724 94.2745 18.076C94.9345 18.428 95.4405 18.89 95.7925 19.462V17.724H99.5545V30H95.7925V28.262C95.4258 28.834 94.9125 29.296 94.2525 29.648C93.6071 30 92.8518 30.176 91.9865 30.176C90.9891 30.176 90.0798 29.9193 89.2585 29.406C88.4371 28.878 87.7845 28.1373 87.3005 27.184C86.8311 26.216 86.5965 25.1013 86.5965 23.84ZM95.7925 23.862C95.7925 22.9233 95.5285 22.1827 95.0005 21.64C94.4871 21.0973 93.8565 20.826 93.1085 20.826C92.3605 20.826 91.7225 21.0973 91.1945 21.64C90.6811 22.168 90.4245 22.9013 90.4245 23.84C90.4245 24.7787 90.6811 25.5267 91.1945 26.084C91.7225 26.6267 92.3605 26.898 93.1085 26.898C93.8565 26.898 94.4871 26.6267 95.0005 26.084C95.5285 25.5413 95.7925 24.8007 95.7925 23.862ZM109.756 17.592C111.193 17.592 112.337 18.0613 113.188 19C114.053 19.924 114.486 21.2 114.486 22.828V30H110.746V23.334C110.746 22.5127 110.533 21.8747 110.108 21.42C109.683 20.9653 109.111 20.738 108.392 20.738C107.673 20.738 107.101 20.9653 106.676 21.42C106.251 21.8747 106.038 22.5127 106.038 23.334V30H102.276V17.724H106.038V19.352C106.419 18.8093 106.933 18.384 107.578 18.076C108.223 17.7533 108.949 17.592 109.756 17.592ZM121.764 17.548C122.63 17.548 123.385 17.724 124.03 18.076C124.69 18.428 125.196 18.89 125.548 19.462V17.724H129.31V29.978C129.31 31.1073 129.083 32.1267 128.628 33.036C128.188 33.96 127.506 34.6933 126.582 35.236C125.673 35.7787 124.536 36.05 123.172 36.05C121.354 36.05 119.88 35.6173 118.75 34.752C117.621 33.9013 116.976 32.7427 116.814 31.276H120.532C120.65 31.7453 120.928 32.112 121.368 32.376C121.808 32.6547 122.351 32.794 122.996 32.794C123.774 32.794 124.39 32.5667 124.844 32.112C125.314 31.672 125.548 30.9607 125.548 29.978V28.24C125.182 28.812 124.676 29.2813 124.03 29.648C123.385 30 122.63 30.176 121.764 30.176C120.752 30.176 119.836 29.9193 119.014 29.406C118.193 28.878 117.54 28.1373 117.056 27.184C116.587 26.216 116.352 25.1013 116.352 23.84C116.352 22.5787 116.587 21.4713 117.056 20.518C117.54 19.5647 118.193 18.8313 119.014 18.318C119.836 17.8047 120.752 17.548 121.764 17.548ZM125.548 23.862C125.548 22.9233 125.284 22.1827 124.756 21.64C124.243 21.0973 123.612 20.826 122.864 20.826C122.116 20.826 121.478 21.0973 120.95 21.64C120.437 22.168 120.18 22.9013 120.18 23.84C120.18 24.7787 120.437 25.5267 120.95 26.084C121.478 26.6267 122.116 26.898 122.864 26.898C123.612 26.898 124.243 26.6267 124.756 26.084C125.284 25.5413 125.548 24.8007 125.548 23.862ZM143.604 23.664C143.604 24.016 143.582 24.3827 143.538 24.764H135.024C135.083 25.5267 135.325 26.1133 135.75 26.524C136.19 26.92 136.725 27.118 137.356 27.118C138.295 27.118 138.947 26.722 139.314 25.93H143.318C143.113 26.7367 142.739 27.4627 142.196 28.108C141.668 28.7533 141.001 29.2593 140.194 29.626C139.387 29.9927 138.485 30.176 137.488 30.176C136.285 30.176 135.215 29.9193 134.276 29.406C133.337 28.8927 132.604 28.1593 132.076 27.206C131.548 26.2527 131.284 25.138 131.284 23.862C131.284 22.586 131.541 21.4713 132.054 20.518C132.582 19.5647 133.315 18.8313 134.254 18.318C135.193 17.8047 136.271 17.548 137.488 17.548C138.676 17.548 139.732 17.7973 140.656 18.296C141.58 18.7947 142.299 19.506 142.812 20.43C143.34 21.354 143.604 22.432 143.604 23.664ZM139.754 22.674C139.754 22.0287 139.534 21.5153 139.094 21.134C138.654 20.7527 138.104 20.562 137.444 20.562C136.813 20.562 136.278 20.7453 135.838 21.112C135.413 21.4787 135.149 21.9993 135.046 22.674H139.754ZM144.841 23.84C144.841 22.5787 145.075 21.4713 145.545 20.518C146.029 19.5647 146.681 18.8313 147.503 18.318C148.324 17.8047 149.241 17.548 150.253 17.548C151.059 17.548 151.793 17.7167 152.453 18.054C153.127 18.3913 153.655 18.846 154.037 19.418V13.72H157.799V30H154.037V28.24C153.685 28.8267 153.179 29.296 152.519 29.648C151.873 30 151.118 30.176 150.253 30.176C149.241 30.176 148.324 29.9193 147.503 29.406C146.681 28.878 146.029 28.1373 145.545 27.184C145.075 26.216 144.841 25.1013 144.841 23.84ZM154.037 23.862C154.037 22.9233 153.773 22.1827 153.245 21.64C152.731 21.0973 152.101 20.826 151.353 20.826C150.605 20.826 149.967 21.0973 149.439 21.64C148.925 22.168 148.669 22.9013 148.669 23.84C148.669 24.7787 148.925 25.5267 149.439 26.084C149.967 26.6267 150.605 26.898 151.353 26.898C152.101 26.898 152.731 26.6267 153.245 26.084C153.773 25.5413 154.037 24.8007 154.037 23.862Z" fill="#2A2B2E"/>
<mask id="mask0_143_24" style="mask-type:alpha" maskUnits="userSpaceOnUse" x="0" y="0" width="30" height="30">
<circle cx="15" cy="15" r="15" fill="#2A2B2E"/>
</mask>
<g mask="url(#mask0_143_24)">
<path d="M14 21C-1.09863 26.2845 -6.50293 20.6818 -7 22.0979C-6.17155 22.9476 -1.73107 25.61 9.40326 29.4619C23.3212 34.2769 33.7596 26.6296 35.7479 22.3812C37.7362 18.1327 34 14 14 21Z" fill="#2A2B2E"/>
</g>
</svg>
