<svg width="1440" height="275" viewBox="0 0 1440 275" fill="none" xmlns="http://www.w3.org/2000/svg">
<g opacity="0.045">
<path d="M-3.09 47.45V85.79H58.74V121.43H-3.09V163.01H66.84V200H-49.26V10.46H66.84V47.45H-3.09ZM185.914 200L157.024 158.15L132.724 200H82.7742L132.454 123.05L81.4242 49.34H133.264L162.154 90.92L186.454 49.34H236.404L185.914 125.21L237.754 200H185.914ZM246.365 124.67C246.365 109.01 249.515 95.33 255.815 83.63C262.295 71.93 271.205 62.93 282.545 56.63C294.065 50.33 307.205 47.18 321.965 47.18C340.865 47.18 356.615 52.13 369.215 62.03C381.995 71.93 390.365 85.88 394.325 103.88H345.185C341.045 92.36 333.035 86.6 321.155 86.6C312.695 86.6 305.945 89.93 300.905 96.59C295.865 103.07 293.345 112.43 293.345 124.67C293.345 136.91 295.865 146.36 300.905 153.02C305.945 159.5 312.695 162.74 321.155 162.74C333.035 162.74 341.045 156.98 345.185 145.46H394.325C390.365 163.1 381.995 176.96 369.215 187.04C356.435 197.12 340.685 202.16 321.965 202.16C307.205 202.16 294.065 199.01 282.545 192.71C271.205 186.41 262.295 177.41 255.815 165.71C249.515 154.01 246.365 140.33 246.365 124.67ZM511.631 47.72C528.911 47.72 542.771 53.48 553.211 65C563.651 76.34 568.871 92 568.871 111.98V200H522.971V118.19C522.971 108.11 520.361 100.28 515.141 94.7C509.921 89.12 502.901 86.33 494.081 86.33C485.261 86.33 478.241 89.12 473.021 94.7C467.801 100.28 465.191 108.11 465.191 118.19V200H419.021V0.199997H465.191V69.59C469.871 62.93 476.261 57.62 484.361 53.66C492.461 49.7 501.551 47.72 511.631 47.72ZM591.775 124.4C591.775 108.92 594.655 95.33 600.415 83.63C606.355 71.93 614.365 62.93 624.445 56.63C634.525 50.33 645.775 47.18 658.195 47.18C668.815 47.18 678.085 49.34 686.005 53.66C694.105 57.98 700.315 63.65 704.635 70.67V49.34H750.805V200H704.635V178.67C700.135 185.69 693.835 191.36 685.735 195.68C677.815 200 668.545 202.16 657.925 202.16C645.685 202.16 634.525 199.01 624.445 192.71C614.365 186.23 606.355 177.14 600.415 165.44C594.655 153.56 591.775 139.88 591.775 124.4ZM704.635 124.67C704.635 113.15 701.395 104.06 694.915 97.4C688.615 90.74 680.875 87.41 671.695 87.41C662.515 87.41 654.685 90.74 648.205 97.4C641.905 103.88 638.755 112.88 638.755 124.4C638.755 135.92 641.905 145.1 648.205 151.94C654.685 158.6 662.515 161.93 671.695 161.93C680.875 161.93 688.615 158.6 694.915 151.94C701.395 145.28 704.635 136.19 704.635 124.67ZM876.007 47.72C893.647 47.72 907.687 53.48 918.127 65C928.747 76.34 934.057 92 934.057 111.98V200H888.157V118.19C888.157 108.11 885.547 100.28 880.327 94.7C875.107 89.12 868.087 86.33 859.267 86.33C850.447 86.33 843.427 89.12 838.207 94.7C832.987 100.28 830.377 108.11 830.377 118.19V200H784.207V49.34H830.377V69.32C835.057 62.66 841.357 57.44 849.277 53.66C857.197 49.7 866.107 47.72 876.007 47.72ZM1023.38 47.18C1034 47.18 1043.27 49.34 1051.19 53.66C1059.29 57.98 1065.5 63.65 1069.82 70.67V49.34H1115.99V199.73C1115.99 213.59 1113.2 226.1 1107.62 237.26C1102.22 248.6 1093.85 257.6 1082.51 264.26C1071.35 270.92 1057.4 274.25 1040.66 274.25C1018.34 274.25 1000.25 268.94 986.39 258.32C972.53 247.88 964.61 233.66 962.63 215.66H1008.26C1009.7 221.42 1013.12 225.92 1018.52 229.16C1023.92 232.58 1030.58 234.29 1038.5 234.29C1048.04 234.29 1055.6 231.5 1061.18 225.92C1066.94 220.52 1069.82 211.79 1069.82 199.73V178.4C1065.32 185.42 1059.11 191.18 1051.19 195.68C1043.27 200 1034 202.16 1023.38 202.16C1010.96 202.16 999.71 199.01 989.63 192.71C979.55 186.23 971.54 177.14 965.6 165.44C959.84 153.56 956.96 139.88 956.96 124.4C956.96 108.92 959.84 95.33 965.6 83.63C971.54 71.93 979.55 62.93 989.63 56.63C999.71 50.33 1010.96 47.18 1023.38 47.18ZM1069.82 124.67C1069.82 113.15 1066.58 104.06 1060.1 97.4C1053.8 90.74 1046.06 87.41 1036.88 87.41C1027.7 87.41 1019.87 90.74 1013.39 97.4C1007.09 103.88 1003.94 112.88 1003.94 124.4C1003.94 135.92 1007.09 145.1 1013.39 151.94C1019.87 158.6 1027.7 161.93 1036.88 161.93C1046.06 161.93 1053.8 158.6 1060.1 151.94C1066.58 145.28 1069.82 136.19 1069.82 124.67ZM1291.41 122.24C1291.41 126.56 1291.14 131.06 1290.6 135.74H1186.11C1186.83 145.1 1189.8 152.3 1195.02 157.34C1200.42 162.2 1206.99 164.63 1214.73 164.63C1226.25 164.63 1234.26 159.77 1238.76 150.05H1287.9C1285.38 159.95 1280.79 168.86 1274.13 176.78C1267.65 184.7 1259.46 190.91 1249.56 195.41C1239.66 199.91 1228.59 202.16 1216.35 202.16C1201.59 202.16 1188.45 199.01 1176.93 192.71C1165.41 186.41 1156.41 177.41 1149.93 165.71C1143.45 154.01 1140.21 140.33 1140.21 124.67C1140.21 109.01 1143.36 95.33 1149.66 83.63C1156.14 71.93 1165.14 62.93 1176.66 56.63C1188.18 50.33 1201.41 47.18 1216.35 47.18C1230.93 47.18 1243.89 50.24 1255.23 56.36C1266.57 62.48 1275.39 71.21 1281.69 82.55C1288.17 93.89 1291.41 107.12 1291.41 122.24ZM1244.16 110.09C1244.16 102.17 1241.46 95.87 1236.06 91.19C1230.66 86.51 1223.91 84.17 1215.81 84.17C1208.07 84.17 1201.5 86.42 1196.1 90.92C1190.88 95.42 1187.64 101.81 1186.38 110.09H1244.16ZM1306.59 124.4C1306.59 108.92 1309.47 95.33 1315.23 83.63C1321.17 71.93 1329.18 62.93 1339.26 56.63C1349.34 50.33 1360.59 47.18 1373.01 47.18C1382.91 47.18 1391.91 49.25 1400.01 53.39C1408.29 57.53 1414.77 63.11 1419.45 70.13V0.199997H1465.62V200H1419.45V178.4C1415.13 185.6 1408.92 191.36 1400.82 195.68C1392.9 200 1383.63 202.16 1373.01 202.16C1360.59 202.16 1349.34 199.01 1339.26 192.71C1329.18 186.23 1321.17 177.14 1315.23 165.44C1309.47 153.56 1306.59 139.88 1306.59 124.4ZM1419.45 124.67C1419.45 113.15 1416.21 104.06 1409.73 97.4C1403.43 90.74 1395.69 87.41 1386.51 87.41C1377.33 87.41 1369.5 90.74 1363.02 97.4C1356.72 103.88 1353.57 112.88 1353.57 124.4C1353.57 135.92 1356.72 145.1 1363.02 151.94C1369.5 158.6 1377.33 161.93 1386.51 161.93C1395.69 161.93 1403.43 158.6 1409.73 151.94C1416.21 145.28 1419.45 136.19 1419.45 124.67Z" fill="#D5D5D5"/>
<path d="M-3.09 47.45V85.79H58.74V121.43H-3.09V163.01H66.84V200H-49.26V10.46H66.84V47.45H-3.09ZM185.914 200L157.024 158.15L132.724 200H82.7742L132.454 123.05L81.4242 49.34H133.264L162.154 90.92L186.454 49.34H236.404L185.914 125.21L237.754 200H185.914ZM246.365 124.67C246.365 109.01 249.515 95.33 255.815 83.63C262.295 71.93 271.205 62.93 282.545 56.63C294.065 50.33 307.205 47.18 321.965 47.18C340.865 47.18 356.615 52.13 369.215 62.03C381.995 71.93 390.365 85.88 394.325 103.88H345.185C341.045 92.36 333.035 86.6 321.155 86.6C312.695 86.6 305.945 89.93 300.905 96.59C295.865 103.07 293.345 112.43 293.345 124.67C293.345 136.91 295.865 146.36 300.905 153.02C305.945 159.5 312.695 162.74 321.155 162.74C333.035 162.74 341.045 156.98 345.185 145.46H394.325C390.365 163.1 381.995 176.96 369.215 187.04C356.435 197.12 340.685 202.16 321.965 202.16C307.205 202.16 294.065 199.01 282.545 192.71C271.205 186.41 262.295 177.41 255.815 165.71C249.515 154.01 246.365 140.33 246.365 124.67ZM511.631 47.72C528.911 47.72 542.771 53.48 553.211 65C563.651 76.34 568.871 92 568.871 111.98V200H522.971V118.19C522.971 108.11 520.361 100.28 515.141 94.7C509.921 89.12 502.901 86.33 494.081 86.33C485.261 86.33 478.241 89.12 473.021 94.7C467.801 100.28 465.191 108.11 465.191 118.19V200H419.021V0.199997H465.191V69.59C469.871 62.93 476.261 57.62 484.361 53.66C492.461 49.7 501.551 47.72 511.631 47.72ZM591.775 124.4C591.775 108.92 594.655 95.33 600.415 83.63C606.355 71.93 614.365 62.93 624.445 56.63C634.525 50.33 645.775 47.18 658.195 47.18C668.815 47.18 678.085 49.34 686.005 53.66C694.105 57.98 700.315 63.65 704.635 70.67V49.34H750.805V200H704.635V178.67C700.135 185.69 693.835 191.36 685.735 195.68C677.815 200 668.545 202.16 657.925 202.16C645.685 202.16 634.525 199.01 624.445 192.71C614.365 186.23 606.355 177.14 600.415 165.44C594.655 153.56 591.775 139.88 591.775 124.4ZM704.635 124.67C704.635 113.15 701.395 104.06 694.915 97.4C688.615 90.74 680.875 87.41 671.695 87.41C662.515 87.41 654.685 90.74 648.205 97.4C641.905 103.88 638.755 112.88 638.755 124.4C638.755 135.92 641.905 145.1 648.205 151.94C654.685 158.6 662.515 161.93 671.695 161.93C680.875 161.93 688.615 158.6 694.915 151.94C701.395 145.28 704.635 136.19 704.635 124.67ZM876.007 47.72C893.647 47.72 907.687 53.48 918.127 65C928.747 76.34 934.057 92 934.057 111.98V200H888.157V118.19C888.157 108.11 885.547 100.28 880.327 94.7C875.107 89.12 868.087 86.33 859.267 86.33C850.447 86.33 843.427 89.12 838.207 94.7C832.987 100.28 830.377 108.11 830.377 118.19V200H784.207V49.34H830.377V69.32C835.057 62.66 841.357 57.44 849.277 53.66C857.197 49.7 866.107 47.72 876.007 47.72ZM1023.38 47.18C1034 47.18 1043.27 49.34 1051.19 53.66C1059.29 57.98 1065.5 63.65 1069.82 70.67V49.34H1115.99V199.73C1115.99 213.59 1113.2 226.1 1107.62 237.26C1102.22 248.6 1093.85 257.6 1082.51 264.26C1071.35 270.92 1057.4 274.25 1040.66 274.25C1018.34 274.25 1000.25 268.94 986.39 258.32C972.53 247.88 964.61 233.66 962.63 215.66H1008.26C1009.7 221.42 1013.12 225.92 1018.52 229.16C1023.92 232.58 1030.58 234.29 1038.5 234.29C1048.04 234.29 1055.6 231.5 1061.18 225.92C1066.94 220.52 1069.82 211.79 1069.82 199.73V178.4C1065.32 185.42 1059.11 191.18 1051.19 195.68C1043.27 200 1034 202.16 1023.38 202.16C1010.96 202.16 999.71 199.01 989.63 192.71C979.55 186.23 971.54 177.14 965.6 165.44C959.84 153.56 956.96 139.88 956.96 124.4C956.96 108.92 959.84 95.33 965.6 83.63C971.54 71.93 979.55 62.93 989.63 56.63C999.71 50.33 1010.96 47.18 1023.38 47.18ZM1069.82 124.67C1069.82 113.15 1066.58 104.06 1060.1 97.4C1053.8 90.74 1046.06 87.41 1036.88 87.41C1027.7 87.41 1019.87 90.74 1013.39 97.4C1007.09 103.88 1003.94 112.88 1003.94 124.4C1003.94 135.92 1007.09 145.1 1013.39 151.94C1019.87 158.6 1027.7 161.93 1036.88 161.93C1046.06 161.93 1053.8 158.6 1060.1 151.94C1066.58 145.28 1069.82 136.19 1069.82 124.67ZM1291.41 122.24C1291.41 126.56 1291.14 131.06 1290.6 135.74H1186.11C1186.83 145.1 1189.8 152.3 1195.02 157.34C1200.42 162.2 1206.99 164.63 1214.73 164.63C1226.25 164.63 1234.26 159.77 1238.76 150.05H1287.9C1285.38 159.95 1280.79 168.86 1274.13 176.78C1267.65 184.7 1259.46 190.91 1249.56 195.41C1239.66 199.91 1228.59 202.16 1216.35 202.16C1201.59 202.16 1188.45 199.01 1176.93 192.71C1165.41 186.41 1156.41 177.41 1149.93 165.71C1143.45 154.01 1140.21 140.33 1140.21 124.67C1140.21 109.01 1143.36 95.33 1149.66 83.63C1156.14 71.93 1165.14 62.93 1176.66 56.63C1188.18 50.33 1201.41 47.18 1216.35 47.18C1230.93 47.18 1243.89 50.24 1255.23 56.36C1266.57 62.48 1275.39 71.21 1281.69 82.55C1288.17 93.89 1291.41 107.12 1291.41 122.24ZM1244.16 110.09C1244.16 102.17 1241.46 95.87 1236.06 91.19C1230.66 86.51 1223.91 84.17 1215.81 84.17C1208.07 84.17 1201.5 86.42 1196.1 90.92C1190.88 95.42 1187.64 101.81 1186.38 110.09H1244.16ZM1306.59 124.4C1306.59 108.92 1309.47 95.33 1315.23 83.63C1321.17 71.93 1329.18 62.93 1339.26 56.63C1349.34 50.33 1360.59 47.18 1373.01 47.18C1382.91 47.18 1391.91 49.25 1400.01 53.39C1408.29 57.53 1414.77 63.11 1419.45 70.13V0.199997H1465.62V200H1419.45V178.4C1415.13 185.6 1408.92 191.36 1400.82 195.68C1392.9 200 1383.63 202.16 1373.01 202.16C1360.59 202.16 1349.34 199.01 1339.26 192.71C1329.18 186.23 1321.17 177.14 1315.23 165.44C1309.47 153.56 1306.59 139.88 1306.59 124.4ZM1419.45 124.67C1419.45 113.15 1416.21 104.06 1409.73 97.4C1403.43 90.74 1395.69 87.41 1386.51 87.41C1377.33 87.41 1369.5 90.74 1363.02 97.4C1356.72 103.88 1353.57 112.88 1353.57 124.4C1353.57 135.92 1356.72 145.1 1363.02 151.94C1369.5 158.6 1377.33 161.93 1386.51 161.93C1395.69 161.93 1403.43 158.6 1409.73 151.94C1416.21 145.28 1419.45 136.19 1419.45 124.67Z" fill="#2A2B2E"/>
</g>
</svg>
