<svg width="32" height="33" viewBox="0 0 32 33" fill="none" xmlns="http://www.w3.org/2000/svg">
<path fill-rule="evenodd" clip-rule="evenodd" d="M23.7561 10.1661C23.2855 9.48389 22.0269 8.52641 19.988 8.9387C18.7992 9.1791 18.0879 9.77244 17.6359 10.553C17.1543 11.3845 16.9216 12.5161 16.9216 13.8335C16.9216 14.5748 16.3247 15.1757 15.5883 15.1757C12.4335 15.1757 9.43095 14.2326 6.90426 11.6801C6.74039 12.5984 6.62606 13.6894 6.68028 14.8207C6.75015 16.2785 7.09641 17.741 7.9163 18.9934C8.72219 20.2244 10.0496 21.3521 12.2675 22.0599C12.7098 22.201 13.0474 22.5634 13.1589 23.0167C13.2704 23.47 13.1399 23.9492 12.8142 24.2818C12.0262 25.0864 11.2337 25.6899 10.4195 26.1676C11.8338 26.3149 13.1962 26.3256 14.4596 26.2106C17.0191 25.9775 19.0581 25.2401 20.3333 24.1983C23.0168 22.0061 24.4539 18.7393 24.1859 13.2658C24.1419 12.3651 25.0035 11.3954 25.4196 10.659C24.7917 10.7772 24.1624 10.755 23.7561 10.1661ZM6.12501 7.47452C6.61721 7.41676 7.10062 7.63855 7.38022 8.05041C9.34739 10.9482 11.7102 12.1537 14.3319 12.4279C14.4605 11.2988 14.7632 10.1831 15.3321 9.20089C16.1667 7.75972 17.524 6.69871 19.4629 6.30665C22.1421 5.7649 24.1821 6.74169 25.3659 7.93797L27.7549 7.48835C28.2653 7.39232 28.7845 7.6032 29.0859 8.02882C29.3871 8.45443 29.4156 9.0174 29.1588 9.47165L26.8661 13.5282C27.0752 19.3825 25.4592 23.4681 22.0137 26.2829C20.186 27.776 17.5707 28.6228 14.6999 28.8843C11.8066 29.1478 8.53619 28.8291 5.2851 27.8734C4.71473 27.7058 4.32339 27.1784 4.3255 26.5802C4.32759 25.982 4.7226 25.4574 5.29414 25.2938C6.9291 24.8257 8.1735 24.421 9.29837 23.7143C7.70042 22.8602 6.52301 21.7436 5.68969 20.4707C4.53146 18.7014 4.10198 16.7291 4.01671 14.9501C3.93146 13.1713 4.18679 11.5238 4.45571 10.3348C4.60879 9.65792 4.78759 8.97789 5.03405 8.32828C5.21305 7.86009 5.63282 7.5323 6.12501 7.47452Z" fill="#2A2B2E"/>
</svg>
